<svg width="2501" height="2501" viewBox="0 0 2501 2501" fill="none" xmlns="http://www.w3.org/2000/svg">
<circle cx="1250.3" cy="1250.82" r="1250" fill="white"/>
<path fill-rule="evenodd" clip-rule="evenodd" d="M1028.44 577.014C913.415 577.014 820.165 670.264 820.165 785.294V1066.14C764.916 1028.83 698.318 1007.04 626.631 1007.04C488.359 1007.04 369.208 1088.1 313.751 1204.88C291.321 1252.11 311.425 1308.58 358.656 1331.01C405.886 1353.44 462.357 1333.33 484.788 1286.1C510.069 1232.87 564.184 1196.39 626.631 1196.39C713.277 1196.39 783.517 1266.63 783.517 1353.28C783.517 1439.92 713.277 1510.16 626.631 1510.16C563.996 1510.16 509.742 1473.46 484.562 1419.97C462.292 1372.66 405.889 1352.37 358.583 1374.64C311.276 1396.91 290.98 1453.31 313.25 1500.62C368.491 1617.96 487.942 1699.51 626.631 1699.51C716.68 1699.51 798.699 1665.13 860.282 1608.78C898.175 1660.54 959.385 1694.15 1028.44 1694.15V577.014Z" fill="#115582"/>
<path fill-rule="evenodd" clip-rule="evenodd" d="M1337.93 579.695C1222.9 579.695 1129.65 672.945 1129.65 787.975V1696.83C1244.68 1696.83 1337.93 1603.58 1337.93 1488.55V1213.24H1347.75C1460.69 1213.24 1552.24 1121.69 1552.24 1008.75H1337.93V839.778H1338.01C1339.59 808.811 1365.2 784.188 1396.56 784.188H1455.32C1533.75 784.188 1597.33 720.608 1597.33 642.179V579.695H1337.93Z" fill="#C68632"/>
<path fill-rule="evenodd" clip-rule="evenodd" d="M1701.4 1385.62C1701.4 1302.34 1768.91 1234.83 1852.2 1234.83C1935.48 1234.83 2002.99 1302.34 2002.99 1385.62C2002.99 1468.9 1935.48 1536.42 1852.2 1536.42C1768.91 1536.42 1701.4 1468.9 1701.4 1385.62ZM1852.2 1041.7C1662.25 1041.7 1508.27 1195.68 1508.27 1385.62C1508.27 1575.57 1662.25 1729.55 1852.2 1729.55C1900.46 1729.55 1946.41 1719.6 1988.1 1701.65V1924.62C2103.13 1924.62 2196.38 1831.37 2196.38 1716.34V1385.62H2196.12C2196.12 1195.68 2042.14 1041.7 1852.2 1041.7Z" fill="#3D7F64"/>
</svg>
