<svg width="120" height="64" viewBox="0 0 120 64" fill="none" xmlns="http://www.w3.org/2000/svg">
<g clip-path="url(#clip0_252_114)">
<path fill-rule="evenodd" clip-rule="evenodd" d="M14.0947 0.473877H4H0V4.47388V14.1547H4V4.47388H14.0947V0.473877ZM105.905 4.47388V0.473877H116H120V4.47388V14.1547H116V4.47388H105.905ZM105.905 59.616H116V49.9352H120V59.616V63.616H116H105.905V59.616ZM4 49.9352V59.616H14.0947V63.616H4H0V59.616V49.9352H4Z" fill="black"/>
<path d="M81.9599 21.3973C79.8623 21.3973 78.0839 21.9749 76.6247 23.1301C75.1655 24.2853 74.436 25.8205 74.436 27.7357C74.436 31.9613 76.792 34.0741 81.504 34.0741C81.656 34.0741 81.8079 34.0741 81.9599 34.0741C83.4495 34.0133 84.6959 33.8309 85.6991 33.5269C86.7023 33.2229 87.4624 32.7821 87.9792 32.2045C88.5264 31.6269 88.9064 30.9885 89.1192 30.2893C89.332 29.5901 89.4384 28.7389 89.4384 27.7357C89.4384 25.6381 88.7544 24.0573 87.3864 22.9933C86.0184 21.9293 84.2095 21.3973 81.9599 21.3973ZM81.9599 16.8373C81.9599 16.8373 81.9751 16.8373 82.0056 16.8373C85.5928 16.8373 88.5264 17.7949 90.8064 19.7101C93.0864 21.6253 94.2264 24.3309 94.2264 27.8269V38.0413C94.2264 41.9629 93.132 44.8813 90.9432 46.7965C88.7848 48.6813 85.7903 49.6237 81.9599 49.6237C81.3823 49.6237 80.7287 49.5781 79.9991 49.4869C79.2999 49.4261 78.3423 49.2741 77.1263 49.0309C75.9407 48.7573 74.7248 48.2861 73.4784 47.6173C72.2624 46.9485 71.1984 46.1125 70.2864 45.1093L73.3872 41.7349C74.2688 42.7381 75.4999 43.5893 77.0807 44.2885C78.6616 44.9877 80.2119 45.3373 81.7319 45.3373C81.7927 45.3373 81.8687 45.3373 81.9599 45.3373C86.9151 45.2157 89.3927 42.8293 89.3927 38.1781V35.5333L89.3472 35.4877C87.7663 37.5853 85.2888 38.6341 81.9143 38.6341C80.212 38.6341 78.6312 38.4213 77.172 37.9957C75.7431 37.5701 74.4512 36.9317 73.296 36.0805C72.1712 35.2293 71.2743 34.0893 70.6055 32.6605C69.9671 31.2317 69.6479 29.5901 69.6479 27.7357C69.6479 24.4221 70.8031 21.7773 73.1135 19.8013C75.4239 17.8253 78.3727 16.8373 81.9599 16.8373Z" fill="black"/>
<path d="M65.6612 14.4661V18.5701C63.5332 18.5701 61.7852 19.3149 60.4172 20.8045C59.0492 22.2941 58.3652 24.1333 58.3652 26.3221H64.5668V30.1981H58.3652V49.1221H53.8052V26.3221C53.8052 23.0693 54.9604 20.2877 57.2708 17.9773C59.6116 15.6365 62.4084 14.4661 65.6612 14.4661Z" fill="black"/>
<path d="M37.6299 45.5197C39.7579 45.5197 41.5363 44.7749 42.9651 43.2853C44.3939 41.7653 45.1083 39.9261 45.1083 37.7677C45.1083 35.5789 44.3939 33.7397 42.9651 32.2501C41.5363 30.7605 39.7579 30.0157 37.6299 30.0157C35.5019 30.0157 33.7539 30.7605 32.3859 32.2501C31.0179 33.7397 30.3339 35.5789 30.3339 37.7677C30.3339 39.9565 31.0179 41.7957 32.3859 43.2853C33.7539 44.7749 35.5019 45.5197 37.6299 45.5197ZM37.6299 49.6237C34.1035 49.6237 31.2459 48.5293 29.0571 46.3405C26.8683 44.1213 25.7739 41.2637 25.7739 37.7677C25.7739 34.3021 26.7315 31.4597 28.6467 29.2405C30.5619 27.0213 33.3587 25.8965 37.0371 25.8661C37.0675 25.8661 37.0979 25.8661 37.1283 25.8661C38.1315 25.8661 39.0739 25.9877 39.9555 26.2309C40.8675 26.4437 41.6123 26.7173 42.1899 27.0517C42.7675 27.3861 43.2691 27.7357 43.6947 28.1005C44.1507 28.4349 44.4699 28.7085 44.6523 28.9213L44.9259 29.2861V14.9221H49.4859V37.7677C49.4859 39.7741 49.1363 41.5677 48.4371 43.1485C47.7683 44.6989 46.8563 45.9453 45.7011 46.8877C44.5459 47.7997 43.2843 48.4837 41.9163 48.9397C40.5483 49.3957 39.1195 49.6237 37.6299 49.6237Z" fill="black"/>
</g>
<defs>
<clipPath id="clip0_252_114">
<rect width="120" height="63" fill="white" transform="translate(0 0.544983)"/>
</clipPath>
</defs>
</svg>
